HIERARCHY
ROOT Hips
{
    OFFSET 0.000000 0.000000 0.000000
    CHANNELS 6 Xposition Yposition Zposition Zrotation Xrotation Yrotation
    JOINT Spine
    {
        OFFSET -0.000000 7.301834 0.000000
        CHANNELS 3 Zrotation Xrotation Yrotation
        JOINT Spine1
        {
            OFFSET -0.000000 19.386312 0.000000
            CHANNELS 3 Zrotation Xrotation Yrotation
            JOINT Neck
            {
                OFFSET -0.000000 19.306698 1.755154
                CHANNELS 3 Zrotation Xrotation Yrotation
                JOINT Head
                {
                    OFFSET -0.000000 12.466545 -1.780935
                    CHANNELS 3 Zrotation Xrotation Yrotation
                    End Site
                    {
                        OFFSET -0.000000 22.261688 0.000000
                    }
                }
            }
            JOINT LeftShoulder
            {
                OFFSET 3.555268 16.609972 -0.220304
                CHANNELS 3 Zrotation Xrotation Yrotation
                JOINT LeftArm
                {
                    OFFSET 13.072458 0.000000 0.000000
                    CHANNELS 3 Zrotation Xrotation Yrotation
                    JOINT LeftForeArm
                    {
                        OFFSET 25.371269 0.000000 0.000000
                        CHANNELS 3 Zrotation Xrotation Yrotation
                        JOINT LeftHand
                        {
                            OFFSET 22.585550 0.000000 0.000000
                            CHANNELS 3 Zrotation Xrotation Yrotation
                            End Site
                            {
                                OFFSET 13.357014 0.000000 0.000000
                            }
                        }
                    }
                }
            }
            JOINT RightShoulder
            {
                OFFSET -3.538182 16.609972 -0.220304
                CHANNELS 3 Zrotation Xrotation Yrotation
                JOINT RightArm
                {
                    OFFSET -13.072458 0.000000 0.000000
                    CHANNELS 3 Zrotation Xrotation Yrotation
                    JOINT RightForeArm
                    {
                        OFFSET -25.371269 0.000000 0.000000
                        CHANNELS 3 Zrotation Xrotation Yrotation
                        JOINT RightHand
                        {
                            OFFSET -22.585550 0.000000 0.000000
                            CHANNELS 3 Zrotation Xrotation Yrotation
                            End Site
                            {
                                OFFSET -13.357014 0.000000 0.000000
                            }
                        }
                    }
                }
            }
        }
    }
    JOINT LeftUpLeg
    {
        OFFSET 8.904675 0.000000 0.000000
        CHANNELS 3 Zrotation Xrotation Yrotation
        JOINT LeftLeg
        {
            OFFSET -0.000000 -39.412514 0.000000
            CHANNELS 3 Zrotation Xrotation Yrotation
            JOINT LeftFoot
            {
                OFFSET -0.000000 -35.646606 0.000000
                CHANNELS 3 Zrotation Xrotation Yrotation
                JOINT LeftToeBase
                {
                    OFFSET -0.000000 -5.788039 13.357014
                    CHANNELS 3 Zrotation Xrotation Yrotation
                    End Site
                    {
                        OFFSET -0.000000 0.000000 3.561870
                    }
                }
            }
        }
    }
    JOINT RightUpLeg
    {
        OFFSET -8.904675 0.000000 0.000000
        CHANNELS 3 Zrotation Xrotation Yrotation
        JOINT RightLeg
        {
            OFFSET -0.000000 -39.412514 0.000000
            CHANNELS 3 Zrotation Xrotation Yrotation
            JOINT RightFoot
            {
                OFFSET -0.000000 -35.646606 0.000000
                CHANNELS 3 Zrotation Xrotation Yrotation
                JOINT RightToeBase
                {
                    OFFSET -0.000000 -5.788039 13.357014
                    CHANNELS 3 Zrotation Xrotation Yrotation
                    End Site
                    {
                        OFFSET -0.000000 0.000000 3.561870
                    }
                }
            }
        }
    }
}
MOTION
Frames:    5
Frame Time:    0.010000
8.838862    78.713203    14.371451    1.218101    8.482348    -22.993210    2.198986    -5.476495    0.724404    -2.186834    4.185373    0.699102    5.020274    13.992610    4.824698    -9.320326    5.353159    4.016510    7.681067    -6.816219    -20.440889    -53.713997    18.752459    -41.962460    65.599579    -62.181385    -76.523460    -16.308290    -13.215965    -16.774088    -10.028626    -6.725290    3.093899    35.098331    53.285213    60.433952    -18.906651    -54.070110    109.544701    -30.307514    -38.317783    16.672926    11.455669    -29.041256    0.900878    -5.155555    36.080669    3.304716    -13.131878    -13.643530    15.274920    0.000000    0.000000    0.000000    -4.633608    2.480750    -2.155080    -2.932909    14.688951    -3.979439    24.892061    -20.390474    -11.633068    0.000000    0.000000    0.000000    
8.852814    78.707542    14.383906    1.220335    8.478255    -22.931337    2.192929    -5.474707    0.725421    -2.148010    4.142574    0.698363    5.081397    14.087361    4.793752    -9.460881    5.342018    3.972908    7.638523    -6.817938    -20.489304    -53.560123    18.669479    -41.976440    65.757408    -62.165764    -76.280930    -16.375141    -13.262980    -16.861233    -10.056820    -6.690835    3.116902    35.266136    53.244804    60.288078    -18.837454    -53.991501    109.625069    -30.220261    -38.265881    16.735918    11.413616    -29.030516    0.888475    -5.146696    36.052486    3.241317    -13.076823    -13.700284    15.292776    0.000000    0.000000    0.000000    -4.634332    2.518816    -2.236605    -2.963773    14.651354    -4.039727    24.923542    -20.353689    -11.550804    0.000000    0.000000    0.000000    
8.855027    78.705772    14.389878    1.219522    8.475971    -22.884356    2.166178    -5.475791    0.716946    -2.090395    4.119452    0.688497    4.983755    14.087273    4.783863    -9.337553    5.402189    3.981466    7.598599    -6.798026    -20.521832    -53.388805    18.781242    -42.012161    66.367119    -62.229179    -75.641258    -16.413792    -13.373218    -16.903454    -10.087692    -6.659443    3.114033    35.359840    53.211941    60.213650    -18.806843    -53.950966    109.646172    -30.057110    -38.245251    16.853359    11.393166    -29.025980    0.866992    -5.152564    36.030861    3.230583    -13.061467    -13.722832    15.274706    0.000000    0.000000    0.000000    -4.602741    2.548313    -2.409431    -3.066148    14.604592    -4.001055    24.990036    -20.298983    -11.464076    0.000000    0.000000    0.000000    
8.859181    78.704361    14.392686    1.221028    8.483615    -22.882744    2.176258    -5.479465    0.729347    -2.108065    4.098733    0.700729    5.010235    14.111751    4.782379    -9.330581    5.406110    3.981512    7.616145    -6.803199    -20.534817    -53.412361    18.713867    -42.004871    66.220558    -62.205173    -75.780830    -16.427622    -13.344159    -16.891026    -10.051666    -6.657166    3.131694    35.454624    53.190029    60.087975    -18.761402    -53.899773    109.703812    -29.999630    -38.214443    16.915689    11.392186    -29.016233    0.909314    -5.133261    36.001087    3.233789    -13.011608    -13.719726    15.262348    0.000000    0.000000    0.000000    -4.604125    2.535653    -2.399260    -3.068553    14.609275    -4.041714    25.019432    -20.280628    -11.424369    0.000000    0.000000    0.000000    
8.860943    78.706383    14.394972    1.217881    8.485512    -22.865025    2.174473    -5.476592    0.728738    -2.089764    4.073091    0.699143    5.010114    14.147353    4.778770    -9.331231    5.400231    3.978889    7.605076    -6.797010    -20.516512    -53.323044    18.760118    -42.050510    66.490463    -62.216549    -75.482170    -16.400068    -13.390121    -16.891733    -10.070658    -6.628837    3.164790    35.602947    53.134731    59.957184    -18.703756    -53.812042    109.776878    -29.979254    -38.148132    16.977646    11.382616    -29.014452    0.941527    -5.097701    35.994717    3.191557    -12.997259    -13.715601    15.255668    0.000000    0.000000    0.000000    -4.599972    2.553051    -2.354729    -3.056177    14.589105    -4.000028    25.016726    -20.318069    -11.527038    0.000000    0.000000    0.000000    
